<svg xmlns="http://www.w3.org/2000/svg" width="1200" height="360" viewBox="0 0 1200 360" role="img" aria-labelledby="title desc">
  <title id="title">WHITE-XR monochrome fluid banner</title>
  <desc id="desc">A minimal white banner with slowly moving glossy black fluid at the edges and WHITE-XR branding in the center.</desc>
  <defs>
    <linearGradient id="paper" x1="0" y1="0" x2="0" y2="1">
      <stop offset="0" stop-color="#ffffff"/>
      <stop offset="1" stop-color="#f4f4f2"/>
    </linearGradient>
    <linearGradient id="fluidLeft" x1="0" y1="0" x2="1" y2="1">
      <stop offset="0" stop-color="#000000"/>
      <stop offset="0.42" stop-color="#090909"/>
      <stop offset="0.68" stop-color="#2b2b2b"/>
      <stop offset="0.82" stop-color="#080808"/>
      <stop offset="1" stop-color="#000000"/>
    </linearGradient>
    <linearGradient id="fluidRight" x1="1" y1="1" x2="0" y2="0">
      <stop offset="0" stop-color="#000000"/>
      <stop offset="0.38" stop-color="#070707"/>
      <stop offset="0.62" stop-color="#303030"/>
      <stop offset="0.78" stop-color="#0a0a0a"/>
      <stop offset="1" stop-color="#000000"/>
    </linearGradient>
    <linearGradient id="edgeGloss" x1="0" y1="0" x2="1" y2="0">
      <stop offset="0" stop-color="#ffffff" stop-opacity="0"/>
      <stop offset="0.45" stop-color="#ffffff" stop-opacity="0.04"/>
      <stop offset="0.7" stop-color="#ffffff" stop-opacity="0.72"/>
      <stop offset="1" stop-color="#ffffff" stop-opacity="0"/>
    </linearGradient>
    <radialGradient id="dropGloss" cx="34%" cy="24%" r="68%">
      <stop offset="0" stop-color="#777777"/>
      <stop offset="0.2" stop-color="#1d1d1d"/>
      <stop offset="0.62" stop-color="#050505"/>
      <stop offset="1" stop-color="#000000"/>
    </radialGradient>
    <filter id="fluidShadow" x="-20%" y="-20%" width="140%" height="150%">
      <feGaussianBlur in="SourceAlpha" stdDeviation="7" result="blur"/>
      <feOffset dy="7" result="offset"/>
      <feColorMatrix in="offset" type="matrix" values="0 0 0 0 0  0 0 0 0 0  0 0 0 0 0  0 0 0 .22 0" result="shadow"/>
      <feMerge>
        <feMergeNode in="shadow"/>
        <feMergeNode in="SourceGraphic"/>
      </feMerge>
    </filter>
    <filter id="dropShadow" x="-80%" y="-80%" width="260%" height="280%">
      <feDropShadow dx="0" dy="4" stdDeviation="4" flood-color="#000000" flood-opacity="0.2"/>
    </filter>
    <clipPath id="frame">
      <rect width="1200" height="360" rx="24"/>
    </clipPath>
  </defs>

  <g clip-path="url(#frame)">
    <rect width="1200" height="360" fill="url(#paper)"/>

    <g filter="url(#fluidShadow)">
      <path fill="url(#fluidLeft)" d="M0 0H267C291 18 300 43 286 64C271 86 278 108 307 127C339 148 342 177 318 196C292 217 274 236 279 267C284 300 259 332 218 360H0Z">
        <animate attributeName="d" dur="15s" repeatCount="indefinite" calcMode="spline" keyTimes="0;0.5;1" keySplines=".42 0 .58 1;.42 0 .58 1" values="M0 0H267C291 18 300 43 286 64C271 86 278 108 307 127C339 148 342 177 318 196C292 217 274 236 279 267C284 300 259 332 218 360H0Z;M0 0H281C304 19 308 45 292 67C277 89 286 111 316 131C346 151 345 180 321 201C296 222 281 242 287 273C292 305 267 334 226 360H0Z;M0 0H267C291 18 300 43 286 64C271 86 278 108 307 127C339 148 342 177 318 196C292 217 274 236 279 267C284 300 259 332 218 360H0Z"/>
        <animate attributeName="opacity" values="1;.96;1" dur="9s" repeatCount="indefinite"/>
      </path>
      <path fill="url(#fluidRight)" d="M1200 0H1011C984 24 978 51 994 74C1010 97 1001 121 970 140C939 160 933 190 957 211C982 234 991 255 982 285C974 315 991 340 1028 360H1200Z">
        <animate attributeName="d" dur="17s" repeatCount="indefinite" calcMode="spline" keyTimes="0;0.5;1" keySplines=".42 0 .58 1;.42 0 .58 1" values="M1200 0H1011C984 24 978 51 994 74C1010 97 1001 121 970 140C939 160 933 190 957 211C982 234 991 255 982 285C974 315 991 340 1028 360H1200Z;M1200 0H998C973 25 969 53 987 77C1004 100 994 125 963 145C934 165 930 193 953 216C978 239 985 260 976 290C968 319 986 343 1023 360H1200Z;M1200 0H1011C984 24 978 51 994 74C1010 97 1001 121 970 140C939 160 933 190 957 211C982 234 991 255 982 285C974 315 991 340 1028 360H1200Z"/>
        <animate attributeName="opacity" values=".97;1;.97" dur="10s" repeatCount="indefinite"/>
      </path>
    </g>

    <path d="M47 14C136 25 222 51 273 91C285 100 290 110 291 119" fill="none" stroke="url(#edgeGloss)" stroke-width="10" stroke-linecap="round" opacity="0.62">
      <animate attributeName="opacity" values=".4;.72;.4" dur="8s" repeatCount="indefinite"/>
    </path>
    <path d="M1153 344C1066 331 1017 303 999 271C993 260 991 249 992 237" fill="none" stroke="url(#edgeGloss)" stroke-width="9" stroke-linecap="round" opacity="0.55">
      <animate attributeName="opacity" values=".65;.36;.65" dur="9s" repeatCount="indefinite"/>
    </path>
    <path d="M25 296C103 278 175 285 229 317" fill="none" stroke="#ffffff" stroke-opacity="0.13" stroke-width="5" stroke-linecap="round"/>
    <path d="M1171 60C1101 72 1046 64 1013 42" fill="none" stroke="#ffffff" stroke-opacity="0.14" stroke-width="5" stroke-linecap="round"/>

    <g filter="url(#dropShadow)">
      <ellipse cx="338" cy="78" rx="14" ry="18" fill="url(#dropGloss)">
        <animate attributeName="cy" values="78;70;78" dur="7s" repeatCount="indefinite"/>
        <animate attributeName="rx" values="14;15;14" dur="7s" repeatCount="indefinite"/>
      </ellipse>
      <circle cx="302" cy="298" r="9" fill="url(#dropGloss)">
        <animate attributeName="cy" values="298;305;298" dur="8.5s" repeatCount="indefinite"/>
      </circle>
      <ellipse cx="883" cy="69" rx="8" ry="11" fill="url(#dropGloss)">
        <animate attributeName="cy" values="69;76;69" dur="9s" repeatCount="indefinite"/>
      </ellipse>
      <ellipse cx="928" cy="278" rx="13" ry="10" fill="url(#dropGloss)">
        <animate attributeName="cy" values="278;270;278" dur="7.5s" repeatCount="indefinite"/>
        <animate attributeName="rx" values="13;14.5;13" dur="7.5s" repeatCount="indefinite"/>
      </ellipse>
    </g>

    <g fill="#111111" text-anchor="middle">
      <text x="600" y="151" font-family="Inter, Segoe UI, Arial, sans-serif" font-size="62" font-weight="800" letter-spacing="11">WHITE-XR</text>
      <rect x="540" y="174" width="120" height="2" rx="1" fill="#111111"/>
      <text x="600" y="216" font-family="JetBrains Mono, Noto Sans SC, Microsoft YaHei, monospace" font-size="18" font-weight="600" letter-spacing="1.6">柿子 // Robotics // 3D Vision // Embodied AI</text>
      <text x="600" y="254" font-family="JetBrains Mono, Consolas, monospace" font-size="13" font-weight="500" letter-spacing="2.2" fill="#4a4a4a">Perception → Geometry → Control → Action</text>
    </g>
  </g>
  <rect x="0.75" y="0.75" width="1198.5" height="358.5" rx="23.25" fill="none" stroke="#111111" stroke-opacity="0.08" stroke-width="1.5"/>
</svg>
